# xmcd
#
# Track frame offsets:
#	150
#	22687
#	41155
#	56482
#	80212
#	101711
#	129632
#	156906
#	177364
#	196561
#	226106
#	254530
#
# Disc length: 3750 seconds
#
# Revision: 1
# Processed by: cddbd v1.5.1PL2 Copyright (c) Steve Scherf et al.
# Submitted via: audiograbber 1.83.01
#
DISCID=980ea40c
DTITLE=Obispo - Les fleurs du bien
DYEAR=2006
DGENRE=pop
TTITLE0=rosa
TTITLE1=la machine
TTITLE2=le chanteur idéal
TTITLE3=1980 
TTITLE4=amen 
TTITLE5=noir
TTITLE6=las vegas
TTITLE7=libre comme picasso
TTITLE8=il voulait de l'eau
TTITLE9=apres quoi on court
TTITLE10=sur la voix de ferré
TTITLE11=les fleurs du bien
EXTD=
EXTT0=
EXTT1=
EXTT2=
EXTT3=
EXTT4=
EXTT5=
EXTT6=
EXTT7=
EXTT8=
EXTT9=
EXTT10=
EXTT11=
PLAYORDER=
